<svg width="33" height="32" viewBox="0 0 33 32" fill="none" xmlns="http://www.w3.org/2000/svg">
<g clip-path="url(#clip0_18089_1216)">
<path d="M11.2798 20.0078C11.1082 20.0078 10.9644 19.9608 10.8481 19.8667C10.7375 19.7726 10.6628 19.6481 10.624 19.4932L10.292 18.1235C10.1758 18.0793 10.0623 18.035 9.95166 17.9907C9.84098 17.9465 9.73584 17.8966 9.63623 17.8413L8.43262 18.5884C8.29427 18.6714 8.15039 18.7074 8.00098 18.6963C7.85156 18.6797 7.71875 18.6133 7.60254 18.4971L6.80566 17.6919C6.69499 17.5757 6.62858 17.4429 6.60645 17.2935C6.58984 17.1385 6.62581 16.9891 6.71436 16.8452L7.45312 15.6665C7.40332 15.5614 7.35352 15.4562 7.30371 15.3511C7.25944 15.2404 7.2207 15.1297 7.1875 15.019L5.80957 14.687C5.64909 14.6483 5.52181 14.5736 5.42773 14.4629C5.33919 14.3522 5.29492 14.2111 5.29492 14.0396V12.9189C5.29492 12.5703 5.46647 12.3545 5.80957 12.2715L7.1709 11.9312C7.21517 11.8094 7.25944 11.696 7.30371 11.5908C7.34798 11.4801 7.39225 11.3778 7.43652 11.2837L6.71436 10.0801C6.63135 9.93066 6.59261 9.78402 6.59814 9.64014C6.60368 9.49626 6.66732 9.36621 6.78906 9.25L7.60254 8.45312C7.71875 8.34245 7.8488 8.27604 7.99268 8.25391C8.13656 8.23177 8.27767 8.26221 8.41602 8.34521L9.62793 9.09229C9.72754 9.03695 9.83268 8.98714 9.94336 8.94287C10.0596 8.8986 10.1758 8.85433 10.292 8.81006L10.624 7.43213C10.6628 7.27718 10.7375 7.15267 10.8481 7.05859C10.9644 6.96452 11.1082 6.91748 11.2798 6.91748H12.4087C12.5802 6.91748 12.7214 6.96452 12.832 7.05859C12.9482 7.15267 13.0257 7.27718 13.0645 7.43213L13.3965 8.82666C13.5182 8.8654 13.6344 8.9069 13.7451 8.95117C13.8558 8.99544 13.9582 9.04525 14.0522 9.10059L15.2725 8.34521C15.4108 8.26221 15.5519 8.23177 15.6958 8.25391C15.8397 8.27604 15.9697 8.34245 16.0859 8.45312L16.8994 9.25C17.0212 9.36621 17.0848 9.49626 17.0903 9.64014C17.0959 9.78402 17.0571 9.93066 16.9741 10.0801L16.252 11.2837C16.2962 11.3778 16.3405 11.4801 16.3848 11.5908C16.429 11.696 16.4733 11.8094 16.5176 11.9312L17.8706 12.2715C18.2192 12.3545 18.3936 12.5703 18.3936 12.9189V14.0396C18.3936 14.2111 18.3465 14.3522 18.2524 14.4629C18.1639 14.5736 18.0366 14.6483 17.8706 14.687L16.501 15.019C16.4678 15.1297 16.4263 15.2404 16.3765 15.3511C16.3322 15.4562 16.2852 15.5614 16.2354 15.6665L16.9741 16.8452C17.0627 16.9891 17.0959 17.1385 17.0737 17.2935C17.0571 17.4429 16.9935 17.5757 16.8828 17.6919L16.0859 18.4971C15.9697 18.6133 15.8369 18.6797 15.6875 18.6963C15.5381 18.7074 15.3942 18.6714 15.2559 18.5884L14.0522 17.8413C13.9526 17.8966 13.8475 17.9465 13.7368 17.9907C13.6261 18.035 13.5127 18.0793 13.3965 18.1235L13.0645 19.4932C13.0257 19.6481 12.9482 19.7726 12.832 19.8667C12.7214 19.9608 12.5802 20.0078 12.4087 20.0078H11.2798ZM11.8442 15.5503C12.2261 15.5503 12.5747 15.4562 12.8901 15.2681C13.2056 15.0799 13.4574 14.8281 13.6455 14.5127C13.8392 14.1917 13.936 13.8376 13.936 13.4502C13.936 13.0739 13.8392 12.728 13.6455 12.4126C13.4574 12.0972 13.2056 11.8454 12.8901 11.6572C12.5747 11.4691 12.2261 11.375 11.8442 11.375C11.4624 11.375 11.111 11.4691 10.79 11.6572C10.4746 11.8454 10.2228 12.0972 10.0347 12.4126C9.84652 12.728 9.75244 13.0739 9.75244 13.4502C9.75244 13.8376 9.84652 14.1917 10.0347 14.5127C10.2228 14.8281 10.4746 15.0799 10.79 15.2681C11.111 15.4562 11.4624 15.5503 11.8442 15.5503ZM22.1123 25.1128C21.9629 25.1128 21.8384 25.0713 21.7388 24.9883C21.6392 24.9108 21.5728 24.8057 21.5396 24.6729L21.2573 23.4858C21.1577 23.4471 21.0581 23.4084 20.9585 23.3696C20.8644 23.3309 20.7731 23.2866 20.6846 23.2368L19.647 23.8843C19.5308 23.9562 19.4062 23.9867 19.2734 23.9756C19.1462 23.9645 19.0327 23.9092 18.9331 23.8096L18.269 23.1372C18.1694 23.0321 18.1086 22.9131 18.0864 22.7803C18.0698 22.6475 18.103 22.5229 18.186 22.4067L18.8252 21.3774C18.7809 21.2889 18.7394 21.1976 18.7007 21.1035C18.6619 21.0094 18.6287 20.9154 18.6011 20.8213L17.4058 20.5391C17.2674 20.5114 17.1567 20.4478 17.0737 20.3481C16.9963 20.2485 16.9575 20.124 16.9575 19.9746V19.0366C16.9575 18.8872 16.9963 18.7627 17.0737 18.6631C17.1567 18.5635 17.2674 18.4971 17.4058 18.4639L18.5845 18.1816C18.6232 18.071 18.6592 17.9686 18.6924 17.8745C18.7311 17.7804 18.7699 17.6947 18.8086 17.6172L18.186 16.5713C18.1086 16.4495 18.0726 16.3278 18.0781 16.2061C18.0892 16.0788 18.1501 15.9626 18.2607 15.8574L18.9331 15.1934C19.0327 15.0938 19.1462 15.0356 19.2734 15.019C19.4007 15.0024 19.5197 15.0273 19.6304 15.0938L20.6763 15.7412C20.7648 15.6914 20.8589 15.6499 20.9585 15.6167C21.0581 15.578 21.1577 15.5392 21.2573 15.5005L21.5396 14.3052C21.5728 14.1724 21.6392 14.0645 21.7388 13.9814C21.8384 13.8984 21.9629 13.8569 22.1123 13.8569H23.0586C23.208 13.8569 23.3325 13.8984 23.4321 13.9814C23.5317 14.0645 23.5981 14.1724 23.6313 14.3052L23.9053 15.5171C24.0104 15.5448 24.1128 15.5807 24.2124 15.625C24.312 15.6693 24.4033 15.7108 24.4863 15.7495L25.5322 15.0938C25.6484 15.0218 25.7674 14.9969 25.8892 15.019C26.0164 15.0356 26.1326 15.0938 26.2378 15.1934L26.9185 15.8574C27.0236 15.9626 27.0789 16.0788 27.0845 16.2061C27.0955 16.3278 27.0623 16.4495 26.9849 16.5713L26.354 17.6172C26.437 17.7666 26.5145 17.9548 26.5864 18.1816L27.7734 18.4639C28.0612 18.5303 28.2051 18.7212 28.2051 19.0366V19.9746C28.2051 20.2845 28.0612 20.4727 27.7734 20.5391L26.5781 20.8213C26.5449 20.9154 26.509 21.0094 26.4702 21.1035C26.4315 21.1976 26.39 21.2889 26.3457 21.3774L26.9849 22.4067C27.0623 22.5229 27.0928 22.6475 27.0762 22.7803C27.0596 22.9131 27.0015 23.0321 26.9019 23.1372L26.2378 23.8096C26.1326 23.9092 26.0164 23.9645 25.8892 23.9756C25.7619 23.9867 25.6401 23.9562 25.5239 23.8843L24.4863 23.2368C24.3978 23.2866 24.3037 23.3309 24.2041 23.3696C24.11 23.4084 24.0104 23.4471 23.9053 23.4858L23.6313 24.6729C23.5981 24.8057 23.5317 24.9108 23.4321 24.9883C23.3325 25.0713 23.208 25.1128 23.0586 25.1128H22.1123ZM22.5854 21.145C23.0448 21.145 23.4349 20.9845 23.7559 20.6636C24.0824 20.3371 24.2456 19.9414 24.2456 19.4766C24.2456 19.0228 24.0824 18.6354 23.7559 18.3145C23.4349 17.988 23.0448 17.8247 22.5854 17.8247C22.1317 17.8247 21.7415 17.988 21.415 18.3145C21.0885 18.6354 20.9253 19.0228 20.9253 19.4766C20.9253 19.9414 21.0885 20.3371 21.415 20.6636C21.7415 20.9845 22.1317 21.145 22.5854 21.145Z" fill="#EEF334"/>
</g>
<defs>
<clipPath id="clip0_18089_1216">
<rect width="32" height="32" fill="white" transform="translate(0.75)"/>
</clipPath>
</defs>
</svg>
