<svg width="33" height="32" viewBox="0 0 33 32" fill="none" xmlns="http://www.w3.org/2000/svg">
<g clip-path="url(#clip0_18089_378)">
<path d="M12.0767 25.6523C11.2078 25.6523 10.5549 25.4365 10.1177 25.0049C9.68604 24.5788 9.47021 23.9368 9.47021 23.0791V13.666C9.47021 12.8083 9.68604 12.1663 10.1177 11.7402C10.5549 11.3086 11.2078 11.0928 12.0767 11.0928H21.4233C22.2866 11.0928 22.9368 11.3086 23.374 11.7402C23.8112 12.1663 24.0298 12.8083 24.0298 13.666V23.0791C24.0298 23.9313 23.8223 24.5732 23.4072 25.0049C22.9922 25.4365 22.4139 25.6523 21.6724 25.6523H12.0767ZM11.2798 9.75635C11.3407 9.38005 11.4707 9.09229 11.6699 8.89307C11.8691 8.68831 12.1763 8.58594 12.5913 8.58594H20.9004C21.3154 8.58594 21.6226 8.68831 21.8218 8.89307C22.021 9.09229 22.151 9.38005 22.2119 9.75635H11.2798ZM12.7241 7.45703C12.7463 7.10286 12.8569 6.83724 13.0562 6.66016C13.2609 6.47754 13.5542 6.38623 13.936 6.38623H19.5557C19.9375 6.38623 20.228 6.47754 20.4272 6.66016C20.632 6.83724 20.7482 7.10286 20.7759 7.45703H12.7241ZM18.1694 15.019C18.4738 15.019 18.7339 14.9111 18.9497 14.6953C19.1711 14.474 19.2817 14.2083 19.2817 13.8984C19.2817 13.5941 19.1711 13.334 18.9497 13.1182C18.7339 12.8968 18.4738 12.7861 18.1694 12.7861C17.8595 12.7861 17.5967 12.8968 17.3809 13.1182C17.165 13.334 17.0571 13.5941 17.0571 13.8984C17.0571 14.2083 17.165 14.474 17.3809 14.6953C17.5967 14.9111 17.8595 15.019 18.1694 15.019ZM16.4263 19.46L18.377 20.5557L17.1235 21.6348C16.9852 21.7565 16.9105 21.8838 16.8994 22.0166C16.8939 22.1549 16.9326 22.2712 17.0156 22.3652C17.0986 22.4593 17.2093 22.5091 17.3477 22.5146C17.486 22.5257 17.6271 22.4731 17.771 22.3569L19.5308 20.8462C19.6525 20.7466 19.7023 20.6082 19.6802 20.4312C19.6636 20.2541 19.5833 20.1157 19.4395 20.0161L17.5303 18.7627L17.9038 17.4429C17.9315 17.3488 17.9868 17.2962 18.0698 17.2852C18.1584 17.2686 18.2303 17.3018 18.2856 17.3848L18.8501 18.2065C18.9165 18.3006 19.005 18.3643 19.1157 18.3975C19.2264 18.4307 19.3343 18.4224 19.4395 18.3726L21.0664 17.6504C21.2103 17.5895 21.3044 17.501 21.3486 17.3848C21.3984 17.2686 21.3929 17.144 21.332 17.0112C21.1992 16.7456 20.9806 16.6792 20.6763 16.812L19.3813 17.3765L18.5098 16.1562C18.2773 15.8353 18.0062 15.6084 17.6963 15.4756C17.3919 15.3428 17.0073 15.2957 16.5425 15.3345L14.7412 15.459C14.4368 15.4756 14.2625 15.6416 14.2183 15.957L13.9775 17.7832C13.9609 17.9437 13.9858 18.0737 14.0522 18.1733C14.1242 18.2729 14.2349 18.3311 14.3843 18.3477C14.6776 18.3809 14.8464 18.2287 14.8906 17.8911L15.1064 16.4136L15.8286 16.3638C15.9116 16.3527 15.9808 16.3748 16.0361 16.4302C16.0915 16.48 16.1081 16.5547 16.0859 16.6543L15.6792 18.1152C15.5962 18.403 15.5879 18.6299 15.6543 18.7959C15.7262 18.9619 15.8341 19.0947 15.978 19.1943C16.1274 19.2884 16.2769 19.377 16.4263 19.46ZM13.0063 23.876C13.106 23.9535 13.2222 23.9922 13.355 23.9922C13.4878 23.9922 13.6178 23.9285 13.7451 23.8013L15.4053 22.166C15.4717 22.0941 15.5187 22.0387 15.5464 22C15.5741 21.9613 15.6128 21.8893 15.6626 21.7842L16.3516 19.9829L16.1938 19.8916C15.9946 19.7865 15.8231 19.6785 15.6792 19.5679C15.5409 19.4572 15.4274 19.3465 15.3389 19.2358L14.7329 21.3857L13.0146 23.0957C12.8818 23.2285 12.821 23.3696 12.832 23.519C12.8431 23.6685 12.9012 23.7874 13.0063 23.876Z" fill="#EEF334"/>
</g>
<defs>
<clipPath id="clip0_18089_378">
<rect width="32" height="32" fill="white" transform="translate(0.75)"/>
</clipPath>
</defs>
</svg>
