<svg width="33" height="32" viewBox="0 0 33 32" fill="none" xmlns="http://www.w3.org/2000/svg">
<g clip-path="url(#clip0_18089_962)">
<path d="M14.2329 12.4209H20.6411C20.7905 12.4209 20.9206 12.3656 21.0312 12.2549C21.1475 12.1442 21.2056 12.0114 21.2056 11.8564C21.2056 11.7015 21.1475 11.5687 21.0312 11.458C20.9206 11.3473 20.7905 11.292 20.6411 11.292H14.2329C14.078 11.292 13.9451 11.3473 13.8345 11.458C13.7238 11.5687 13.6685 11.7015 13.6685 11.8564C13.6685 12.0114 13.7238 12.1442 13.8345 12.2549C13.9451 12.3656 14.078 12.4209 14.2329 12.4209ZM14.2329 14.7783H19.0972C19.2521 14.7783 19.3849 14.723 19.4956 14.6123C19.6063 14.5016 19.6616 14.366 19.6616 14.2056C19.6616 14.0562 19.6063 13.9261 19.4956 13.8154C19.3849 13.7048 19.2521 13.6494 19.0972 13.6494H14.2329C14.078 13.6494 13.9451 13.7048 13.8345 13.8154C13.7238 13.9261 13.6685 14.0562 13.6685 14.2056C13.6685 14.366 13.7238 14.5016 13.8345 14.6123C13.9451 14.723 14.078 14.7783 14.2329 14.7783ZM11.8174 24.9053C10.9707 24.9053 10.3343 24.6895 9.9082 24.2578C9.4821 23.8317 9.26904 23.1925 9.26904 22.3403V9.72314C9.26904 8.85433 9.4821 8.2041 9.9082 7.77246C10.3398 7.33529 10.9845 7.1167 11.8423 7.1167H20.6577C21.5155 7.1167 22.1574 7.33529 22.5835 7.77246C23.0151 8.20964 23.231 8.85986 23.231 9.72314V19.2441C23.231 19.6592 23.1535 19.9829 22.9985 20.2153C22.8436 20.4478 22.6886 20.6414 22.5337 20.7964C22.1906 21.145 21.9803 21.5103 21.9028 21.8921C21.8254 22.2684 21.8613 22.6115 22.0107 22.9214C22.1657 23.2368 22.4175 23.4637 22.7661 23.6021C22.8989 23.6463 23.0096 23.7266 23.0981 23.8428C23.1867 23.9645 23.231 24.0973 23.231 24.2412C23.231 24.4238 23.1646 24.5788 23.0317 24.7061C22.9045 24.8389 22.7495 24.9053 22.5669 24.9053H11.8174ZM11.8921 23.5688H20.8901C20.6688 23.2091 20.5443 22.8107 20.5166 22.3735C20.4945 21.9419 20.5802 21.5103 20.7739 21.0786C20.6854 21.0952 20.5885 21.1035 20.4834 21.1035H11.9668C11.5518 21.1035 11.2197 21.217 10.9707 21.4438C10.7272 21.6652 10.6055 21.9613 10.6055 22.332C10.6055 22.7249 10.7134 23.0293 10.9292 23.2451C11.1506 23.4609 11.4715 23.5688 11.8921 23.5688ZM11.6431 19.8418C11.7703 19.8418 11.881 19.7948 11.9751 19.7007C12.0747 19.6066 12.1245 19.4932 12.1245 19.3604V8.87646C12.1245 8.74365 12.0747 8.63298 11.9751 8.54443C11.881 8.45036 11.7703 8.40332 11.6431 8.40332C11.5158 8.40332 11.4051 8.45036 11.311 8.54443C11.217 8.63298 11.1699 8.74365 11.1699 8.87646V19.3604C11.1699 19.4932 11.217 19.6066 11.311 19.7007C11.4051 19.7948 11.5158 19.8418 11.6431 19.8418Z" fill="#EEF334"/>
</g>
<defs>
<clipPath id="clip0_18089_962">
<rect width="32" height="32" fill="white" transform="translate(0.25)"/>
</clipPath>
</defs>
</svg>
