<svg width="33" height="32" viewBox="0 0 33 32" fill="none" xmlns="http://www.w3.org/2000/svg">
<g clip-path="url(#clip0_18089_247)">
<path d="M10.6802 23.4692C10.2375 23.4692 9.88883 23.3696 9.63428 23.1704C9.38525 22.9767 9.26074 22.7083 9.26074 22.3652C9.26074 21.8285 9.42122 21.2668 9.74219 20.6802C10.0632 20.0881 10.528 19.5347 11.1367 19.02C11.7454 18.4998 12.4787 18.0793 13.3364 17.7583C14.1997 17.4318 15.1681 17.2686 16.2417 17.2686C17.3208 17.2686 18.2892 17.4318 19.147 17.7583C20.0103 18.0793 20.7435 18.4998 21.3467 19.02C21.9554 19.5347 22.4202 20.0881 22.7412 20.6802C23.0677 21.2668 23.231 21.8285 23.231 22.3652C23.231 22.7083 23.1037 22.9767 22.8491 23.1704C22.6001 23.3696 22.2542 23.4692 21.8115 23.4692H10.6802ZM16.25 15.7827C15.6579 15.7827 15.11 15.6222 14.6064 15.3013C14.1029 14.9748 13.6961 14.5376 13.3862 13.9897C13.0819 13.4364 12.9297 12.8166 12.9297 12.1304C12.9297 11.4552 13.0819 10.8465 13.3862 10.3042C13.6961 9.76188 14.1029 9.33301 14.6064 9.01758C15.11 8.70215 15.6579 8.54443 16.25 8.54443C16.8421 8.54443 17.39 8.69938 17.8936 9.00928C18.3971 9.31917 18.8011 9.74528 19.1055 10.2876C19.4154 10.8244 19.5703 11.4331 19.5703 12.1138C19.5703 12.8055 19.4154 13.4281 19.1055 13.9814C18.8011 14.5348 18.3971 14.9748 17.8936 15.3013C17.39 15.6222 16.8421 15.7827 16.25 15.7827Z" fill="#EEF334"/>
</g>
<defs>
<clipPath id="clip0_18089_247">
<rect width="32" height="32" fill="white" transform="translate(0.25)"/>
</clipPath>
</defs>
</svg>
